<svg width="32" height="32" viewBox="0 0 32 32" fill="none" xmlns="http://www.w3.org/2000/svg">
<path d="M8 1H24C27.866 1 31 4.13401 31 8V24C31 27.866 27.866 31 24 31H8C4.13401 31 1 27.866 1 24V8C1 4.13401 4.13401 1 8 1Z" stroke="white" stroke-width="2"/>
<path d="M18.2897 11.4694H19.5937V9.26675C18.9628 9.19959 18.3286 9.16695 17.6942 9.16897C17.2625 9.13753 16.8291 9.20089 16.4245 9.3546C16.0199 9.50832 15.6538 9.74866 15.3519 10.0588C15.05 10.3689 14.8195 10.7413 14.6768 11.1499C14.534 11.5585 14.4822 11.9934 14.5253 12.4241V14.3645H12.4497V16.8268H14.5253V23.0241H17.0719V16.8276H19.0604L19.3768 14.3654H17.0719V12.6676C17.0719 11.9565 17.2693 11.4685 18.2924 11.4685L18.2897 11.4694Z" fill="white"/>
</svg>
