<svg width="32" height="32" viewBox="0 0 32 32" fill="none" xmlns="http://www.w3.org/2000/svg">
<path d="M8 1H24C27.866 1 31 4.13401 31 8V24C31 27.866 27.866 31 24 31H8C4.13401 31 1 27.866 1 24V8C1 4.13401 4.13401 1 8 1Z" stroke="white" stroke-width="2"/>
<path d="M16.0284 12.989C15.4131 12.989 14.8116 13.1715 14.3 13.5133C13.7884 13.8552 13.3896 14.3411 13.1542 14.9096C12.9187 15.478 12.8571 16.1036 12.9771 16.7071C13.0972 17.3106 13.3935 17.8649 13.8286 18.3C14.2637 18.7351 14.818 19.0314 15.4215 19.1515C16.025 19.2715 16.6505 19.2099 17.219 18.9744C17.7875 18.739 18.2734 18.3402 18.6152 17.8286C18.9571 17.317 19.1396 16.7155 19.1396 16.1001C19.1405 15.6913 19.0607 15.2863 18.9046 14.9085C18.7486 14.5306 18.5195 14.1872 18.2304 13.8982C17.9413 13.6091 17.598 13.3799 17.2201 13.2239C16.8422 13.0679 16.4373 12.9881 16.0284 12.989V12.989ZM16.0284 18.1197C15.6287 18.1197 15.2379 18.0011 14.9055 17.779C14.573 17.5569 14.314 17.2412 14.161 16.8719C14.008 16.5025 13.968 16.0961 14.0459 15.704C14.1239 15.3119 14.3165 14.9517 14.5991 14.6691C14.8818 14.3864 15.242 14.1939 15.6341 14.1159C16.0262 14.0379 16.4326 14.0779 16.802 14.2309C17.1713 14.3839 17.487 14.643 17.7091 14.9754C17.9312 15.3078 18.0498 15.6986 18.0498 16.0984C18.0488 16.6342 17.8356 17.1477 17.4567 17.5266C17.0778 17.9055 16.5642 18.1187 16.0284 18.1197ZM19.9902 12.8619C19.9902 13.0054 19.9477 13.1456 19.868 13.2649C19.7883 13.3842 19.675 13.4771 19.5425 13.532C19.4099 13.5869 19.2641 13.6013 19.1234 13.5733C18.9827 13.5453 18.8534 13.4762 18.752 13.3748C18.6506 13.2734 18.5815 13.1441 18.5535 13.0034C18.5255 12.8627 18.5399 12.7169 18.5948 12.5843C18.6497 12.4518 18.7426 12.3385 18.8619 12.2588C18.9812 12.1791 19.1214 12.1366 19.2649 12.1366C19.3602 12.1363 19.4546 12.1549 19.5427 12.1913C19.6308 12.2277 19.7109 12.2811 19.7783 12.3485C19.8457 12.4159 19.8991 12.496 19.9355 12.5841C19.9719 12.6722 19.9905 12.7666 19.9902 12.8619ZM22.0498 13.5979C22.0703 12.6553 21.7191 11.7424 21.072 11.0566C20.3849 10.4116 19.4729 10.0608 18.5307 10.0788C17.5298 10.0219 14.5307 10.0219 13.5271 10.0788C12.5848 10.0602 11.6726 10.4112 10.9858 11.0566C10.3398 11.7431 9.98873 12.6555 10.008 13.5979C9.95111 14.5988 9.95111 17.5979 10.008 18.6015C9.98748 19.5441 10.3387 20.457 10.9858 21.1428C11.6732 21.7873 12.585 22.1381 13.5271 22.1206C14.528 22.1775 17.5271 22.1775 18.5307 22.1206C19.4733 22.1411 20.3862 21.7899 21.072 21.1428C21.7169 20.4557 22.0678 19.5437 22.0498 18.6015C22.1067 17.6006 22.1067 14.6015 22.0498 13.6006V13.5979ZM20.7564 19.6735C20.6537 19.9352 20.498 20.1729 20.2991 20.3717C20.1003 20.5706 19.8626 20.7262 19.6009 20.829C18.4255 21.0703 17.223 21.1522 16.0258 21.0726C14.8285 21.151 13.6262 21.0691 12.4507 20.829C12.1889 20.7262 11.9512 20.5706 11.7524 20.3717C11.5536 20.1729 11.3979 19.9352 11.2951 19.6735C11.0538 18.4981 10.9719 17.2956 11.0516 16.0984C10.9731 14.9011 11.0551 13.6988 11.2951 12.5232C11.3979 12.2615 11.5536 12.0238 11.7524 11.825C11.9512 11.6262 12.1889 11.4705 12.4507 11.3677C13.626 11.1264 14.8285 11.0445 16.0258 11.1241C17.223 11.0457 18.4254 11.1276 19.6009 11.3677C19.8626 11.4705 20.1003 11.6262 20.2991 11.825C20.498 12.0238 20.6537 12.2615 20.7564 12.5232C20.9977 13.6986 21.0797 14.9011 21 16.0984C21.0794 17.2953 20.9972 18.4976 20.7556 19.6726L20.7564 19.6735Z" fill="white"/>
</svg>
