<svg width="114" height="111" viewBox="0 0 114 111" fill="none" xmlns="http://www.w3.org/2000/svg">
<path d="M89.2872 0.75L110.25 0.76775L110.262 21.6122L77.9153 53.9527L94.6477 70.6909L103.02 62.3247L111.386 70.6909L96.7481 85.3347L113.48 102.073L105.114 110.439L88.376 93.7008L73.7322 108.345L65.3661 99.9784L73.7322 91.6063L56.994 74.874L40.2617 91.6063L48.6337 99.9784L40.2676 108.345L25.6238 93.7008L8.88558 110.439L0.519409 102.073L17.2577 85.3287L2.61391 70.6909L10.9801 62.3247L19.3462 70.685L36.0727 53.9527L3.76766 21.6477L3.74991 0.75L24.7304 0.76775L56.994 33.0372L89.2872 0.75ZM44.4388 62.3188L27.7124 79.0512L31.9014 83.2342L48.6278 66.5019L44.4447 62.3188H44.4388ZM98.4225 12.5892H94.1802L65.3661 41.3975L69.5432 45.5806L98.4225 16.7132V12.5892V12.5892ZM15.5892 12.5892V16.7309L82.0984 83.2402L86.2815 79.0571L19.8196 12.5952L15.5892 12.5892V12.5892Z" fill="#120448"/>
</svg>
