<svg width="32" height="32" viewBox="0 0 32 32" fill="none" xmlns="http://www.w3.org/2000/svg">
<path d="M8 1H24C27.866 1 31 4.13401 31 8V24C31 27.866 27.866 31 24 31H8C4.13401 31 1 27.866 1 24V8C1 4.13401 4.13401 1 8 1Z" stroke="white" stroke-width="2"/>
<path d="M21.7107 13.2997C21.7195 13.4224 21.7195 13.5459 21.7195 13.6686C21.7269 14.7316 21.5229 15.7855 21.1195 16.769C20.7161 17.7525 20.1212 18.6461 19.3696 19.3977C18.6179 20.1494 17.7243 20.7442 16.7408 21.1477C15.7573 21.5511 14.7034 21.755 13.6404 21.7477C12.0944 21.7521 10.5801 21.3098 9.27954 20.4739C9.5071 20.4991 9.73593 20.511 9.96487 20.5095C11.2429 20.5125 12.4847 20.0851 13.4902 19.2962C12.8977 19.2855 12.3233 19.09 11.8473 18.737C11.3713 18.384 11.0174 17.8911 10.8351 17.3273C11.0115 17.3551 11.1898 17.3696 11.3684 17.3708C11.6207 17.3701 11.8719 17.3375 12.116 17.2739C11.4738 17.1424 10.8968 16.7932 10.4825 16.2852C10.0682 15.7773 9.84199 15.1419 9.84221 14.4864V14.4508C10.2357 14.6703 10.6755 14.7936 11.1258 14.8108C10.5231 14.4088 10.0965 13.7919 9.93315 13.086C9.76978 12.3802 9.88191 11.6386 10.2467 11.0126C10.9599 11.8906 11.8497 12.6088 12.8584 13.1207C13.8671 13.6326 14.9721 13.9268 16.1018 13.9842C16.0562 13.7702 16.0327 13.5522 16.0315 13.3335C16.033 12.7644 16.2053 12.2088 16.5259 11.7385C16.8465 11.2683 17.3009 10.9051 17.8301 10.6958C18.3594 10.4866 18.9393 10.4409 19.4948 10.5647C20.0503 10.6885 20.5559 10.9762 20.9462 11.3904C21.5823 11.2681 22.1922 11.0362 22.7489 10.7051C22.538 11.3605 22.0956 11.9166 21.5044 12.2695C22.0685 12.2055 22.6198 12.0575 23.14 11.8304C22.7498 12.3972 22.2665 12.894 21.7107 13.2997V13.2997Z" fill="white"/>
</svg>
